<svg width="20" height="24" viewBox="0 0 20 24" fill="none" xmlns="http://www.w3.org/2000/svg">
<path d="M10.492 0.771741C11.7198 0.752991 12.9385 0.762741 14.1565 0.752991C14.197 2.27624 14.815 3.64724 15.7983 4.66274L15.7968 4.66124C16.855 5.61449 18.232 6.23249 19.75 6.33749L19.771 6.33899V10.116C18.337 10.08 16.9885 9.74924 15.7728 9.18074L15.8343 9.20624C15.2463 8.92349 14.749 8.63324 14.2765 8.30924L14.3155 8.33474C14.3065 11.0715 14.3245 13.8082 14.2968 16.5352C14.2195 17.925 13.7575 19.1925 13.0165 20.2507L13.0315 20.2275C11.7925 22.002 9.7855 23.1667 7.50325 23.2357H7.49275C7.4005 23.2402 7.29176 23.2425 7.18226 23.2425C5.88476 23.2425 4.67201 22.881 3.63851 22.2532L3.66851 22.2705C1.78751 21.1387 0.490005 19.2022 0.250005 16.95L0.247005 16.9192C0.228255 16.4505 0.219255 15.9817 0.238005 15.5227C0.605505 11.9385 3.60851 9.16574 7.25876 9.16574C7.66901 9.16574 8.07101 9.20099 8.46176 9.26774L8.41975 9.26174C8.4385 10.6485 8.38226 12.036 8.38226 13.4227C8.06501 13.308 7.69901 13.2412 7.31726 13.2412C5.91626 13.2412 4.72451 14.1367 4.28351 15.387L4.27676 15.4095C4.17701 15.7297 4.11926 16.098 4.11926 16.479C4.11926 16.6335 4.12901 16.7865 4.14701 16.9365L4.14551 16.9185C4.39451 18.453 5.71001 19.611 7.29626 19.611C7.34201 19.611 7.38701 19.6102 7.43201 19.608H7.42526C8.52251 19.575 9.475 18.9847 10.0135 18.1125L10.021 18.099C10.2213 17.82 10.3585 17.4825 10.4043 17.1157L10.405 17.1052C10.4988 15.4275 10.4613 13.7595 10.4703 12.0817C10.4793 8.30474 10.4613 4.53674 10.489 0.769491L10.492 0.771741Z" fill="black"/>
</svg>
