<?xml version="1.0" encoding="utf-8"?>
<!-- Generator: Adobe Illustrator 24.3.0, SVG Export Plug-In . SVG Version: 6.00 Build 0)  -->
<svg version="1.0" id="katman_1" xmlns="http://www.w3.org/2000/svg" xmlns:xlink="http://www.w3.org/1999/xlink" x="0px" y="0px"
	 viewBox="0 0 841.89 595.28" style="enable-background:new 0 0 841.89 595.28;" xml:space="preserve">
<style type="text/css">
	.st0{clip-path:url(#SVGID_2_);}
	.st1{clip-path:url(#SVGID_4_);}
	.st2{display:none;clip-path:url(#SVGID_6_);}
	.st3{display:inline;}
	.st4{clip-path:url(#SVGID_8_);}
	.st5{fill:#231F1F;}
	.st6{clip-path:url(#SVGID_10_);}
	.st7{clip-path:url(#SVGID_12_);}
	.st8{clip-path:url(#SVGID_14_);}
	.st9{fill:#FFFFFF;filter:url(#Adobe_OpacityMaskFilter);}
	.st10{mask:url(#__lottie_element_83_1_);}
	.st11{clip-path:url(#SVGID_16_);}
	.st12{clip-path:url(#SVGID_18_);}
	.st13{clip-path:url(#SVGID_20_);}
	.st14{clip-path:url(#SVGID_22_);}
	.st15{clip-path:url(#SVGID_24_);}
	.st16{clip-path:url(#SVGID_26_);}
	.st17{clip-path:url(#SVGID_28_);}
	.st18{fill:#FFFFFF;filter:url(#Adobe_OpacityMaskFilter_1_);}
	.st19{mask:url(#__lottie_element_25_1_);}
	.st20{clip-path:url(#SVGID_30_);}
	.st21{clip-path:url(#SVGID_32_);}
	.st22{display:none;}
</style>
<g>
	<defs>
		<rect id="SVGID_1_" x="-143.26" y="97.32" width="1129.28" height="407.01"/>
	</defs>
	<clipPath id="SVGID_2_">
		<use xlink:href="#SVGID_1_"  style="overflow:visible;"/>
	</clipPath>
	<g class="st0">
		<g>
			<defs>
				<rect id="SVGID_3_" x="-143.26" y="-18.55" width="1129.28" height="635.22"/>
			</defs>
			<clipPath id="SVGID_4_">
				<use xlink:href="#SVGID_3_"  style="overflow:visible;"/>
			</clipPath>
			<g transform="matrix(1,0,0,1,0,-197)" class="st1">
				<g>
					<defs>
						<rect id="SVGID_5_" x="-143.26" y="178.45" width="1129.28" height="635.22"/>
					</defs>
					<clipPath id="SVGID_6_">
						<use xlink:href="#SVGID_5_"  style="overflow:visible;"/>
					</clipPath>
					<g transform="matrix(1,0,0,1,0,0)" class="st2">
						<g class="st3">
							<defs>
								<rect id="SVGID_7_" x="-143.26" y="178.45" width="1129.28" height="635.22"/>
							</defs>
							<clipPath id="SVGID_8_">
								<use xlink:href="#SVGID_7_"  style="overflow:visible;"/>
							</clipPath>
							<g transform="matrix(1,0,0,1,0,0)" class="st4">
								<g transform="matrix(2.940000057220459,0,0,2.940000057220459,389.16998291015625,333.260009765625)">
									<g transform="matrix(1,0,0,1,79.33499908447266,71.13200378417969)">
										<path class="st5" d="M-135.92-15.28"/>
									</g>
									<g transform="matrix(1,0,0,1,273.4599914550781,70.88999938964844)">
										<path class="st5" d="M-155.46-21.35c3.68-0.08,6.29-1.21,6.93-4.71c0.38-2.08-0.84-3.41-3.21-3.52
											c0,0-6.87-0.36-14.78-0.71c0,0-11.76-0.48-15.04-0.55c-2.93-0.07-5.78-0.09-7.76-0.06c-1.85,0.03-2.71,0.98-3.09,2.5
											c-0.38,1.52-0.69,3.68-0.81,5.93c-0.09,1.7,1.76,2.51,3.67,2.44c0,0,2.35-0.11,6.02-0.28c4.16-0.16,15.49-0.66,15.49-0.66
											C-164.08-21.12-159.66-21.25-155.46-21.35z"/>
									</g>
								</g>
							</g>
						</g>
						<g class="st3">
							<defs>
								<rect id="SVGID_9_" x="-143.26" y="178.45" width="1129.28" height="635.22"/>
							</defs>
							<clipPath id="SVGID_10_">
								<use xlink:href="#SVGID_9_"  style="overflow:visible;"/>
							</clipPath>
							<g transform="matrix(1,0,0,1,0,0)" class="st6">
								<g transform="matrix(2.940000057220459,0,0,2.940000057220459,389.16998291015625,333.260009765625)">
									<g transform="matrix(1,0,0,1,79.33499908447266,71.13200378417969)">
										<path class="st5" d="M-135.92-15.28"/>
									</g>
									<g transform="matrix(1,0,0,1,273.4599914550781,70.88999938964844)">
										<path class="st5" d="M-166.52-30.29c0,0,1.6-8.78,2.38-12.35c0.38-1.76-0.54-3.49-2.76-4.03
											c-2.2-0.53-7.25-0.57-8.94-0.38c-1.42,0.16-2.79,1-3.11,2.47c-0.8,3.67-1.63,8.08-2.62,13.74
											c-0.52,2.62-1.52,7.32-1.98,10.52c-0.68,3.21-1.98,11.84-2.56,17.2c-0.68,6.4-1.08,10.2-0.63,15.68
											c1.3,9.92,6.48,13.85,14.9,13.85c7.73,0,15.18-4.9,20.45-13.78c1.05-1.77,1.82-3.32,1.15-4.09
											c-1.53-1.76-4.45-2.67-5.25-1.21c-3.48,6.36-7.21,8.93-11.28,8.93c-3.22,0-5.82-1.91-5.82-7.49
											c0-8.03,4.52-29.74,4.52-29.74C-167.48-23.42-166.88-26.82-166.52-30.29z"/>
									</g>
								</g>
							</g>
						</g>
						<g class="st3">
							<defs>
								<rect id="SVGID_11_" x="-143.26" y="178.45" width="1129.28" height="635.22"/>
							</defs>
							<clipPath id="SVGID_12_">
								<use xlink:href="#SVGID_11_"  style="overflow:visible;"/>
							</clipPath>
							<g transform="matrix(1,0,0,1,0,0)" class="st7">
								<g transform="matrix(2.940000057220459,0,0,2.940000057220459,389.16998291015625,333.260009765625)">
									<g transform="matrix(1,0,0,1,79.33499908447266,71.13200378417969)">
										<path class="st5" d="M-135.92-15.28"/>
									</g>
									<g transform="matrix(1,0,0,1,273.4599914550781,70.88999938964844)">
										<path class="st5" d="M-183.54-20.31c-0.68,3.21-2.04,11.84-2.56,17.2c-3.32,11.15-10.2,19.37-16.13,19.37
											c-3.63,0-5.8-2.16-5.8-8.7c0-9.05,2.08-20.5,5.11-31.98c2.03-10.51,4.23-20.81,4.74-26.43c0.18-1.94,1.41-4.63-0.93-5.1
											c-4.22-0.84-8.23-0.68-11.04,0.19c-2.51,0.78-3.02,3.42-3.33,4.83c-1.45,6.77-3.82,18.76-5.49,29.28
											c-0.53,3.62-1.43,8.02-2.18,12.34c0,0-2.38,12.01-2.38,19.06c0,10.69,4.59,16.65,15.36,16.65
											c8.86,0,16.6-6.25,21.43-13.85c4.55-7.58,11.48-33.14,11.48-33.14C-171.28-20.72-187.22-20.13-183.54-20.31z"/>
									</g>
								</g>
								<g transform="matrix(2.940000057220459,0,0,2.940000057220459,389.16998291015625,333.260009765625)">
									<g transform="matrix(1,0,0,1,79.33499908447266,71.13200378417969)">
										<path class="st5" d="M-135.92-15.28"/>
									</g>
									<g transform="matrix(1,0,0,1,273.4599914550781,70.88999938964844)">
										<path class="st5" d="M-173.2-30.33c0,0,0.38-8.73,1.16-12.31c0.38-1.76-2.1-4.6-3.79-4.41c-1.42,0.16-2.79,1-3.11,2.47
											c-0.8,3.67-2.62,13.74-2.62,13.74l-1.98,10.52c0,0-2.04,11.84-2.56,17.2c-3.32,11.15-10.2,19.37-16.13,19.37
											c-3.63,0-5.8-2.16-5.8-8.7c0-9.05-15.49-4.85-15.49,2.2c0,10.69,4.59,16.65,15.36,16.65c8.86,0,16.6-6.25,21.43-13.85
											c7.43-13.92,11.65-32.37,11.65-32.37L-173.2-30.33z"/>
									</g>
								</g>
							</g>
						</g>
						<g class="st3">
							<defs>
								<rect id="SVGID_13_" x="-143.26" y="178.45" width="1129.28" height="635.22"/>
							</defs>
							<clipPath id="SVGID_14_">
								<use xlink:href="#SVGID_13_"  style="overflow:visible;"/>
							</clipPath>
							<g transform="matrix(1,0,0,1,0,0)" class="st8">
								<defs>
									<filter id="Adobe_OpacityMaskFilter" filterUnits="userSpaceOnUse" x="222.82" y="375.6" width="393.55" height="157.5">
										<feColorMatrix  type="matrix" values="1 0 0 0 0  0 1 0 0 0  0 0 1 0 0  0 0 0 1 0"/>
									</filter>
								</defs>
								<mask maskUnits="userSpaceOnUse" x="222.82" y="375.6" width="393.55" height="157.5" id="__lottie_element_83_1_">
									<rect x="-143.26" y="294.32" class="st9" width="1129.28" height="635.22"/>
									<path d="M504.31,537.82c-32.94-15.88-109.99,32.94-108.22,32.94s97.64,21.76,107.05,21.17
										C512.55,591.35,537.25,553.7,504.31,537.82"/>
								</mask>
								<g class="st10">
									<g transform="matrix(2.940000057220459,0,0,2.940000057220459,389.16998291015625,333.260009765625)">
										<g transform="matrix(1,0,0,1,79.33499908447266,71.13200378417969)">
											<path class="st5" d="M-135.92-15.28"/>
										</g>
										<g transform="matrix(1,0,0,1,273.4599914550781,70.88999938964844)">
											<path class="st5" d="M-207.72-28.41c4.28-10.29,0.38-28.21-2.43-27.33c-2.51,0.78-0.52,17.63-0.83,19.04
												c-1.45,6.77-2.41,7.29-7.99,15.08c-3.69,4.47-7.93,7.61-12.53,8.39c-12.91,1.33-14.81-4.57-9.98-12.91
												c7.53-13-2.44-8.47-7.35,0.05c-1.5,2.6-1.89,5.6-1.98,8.54c-0.11,3.68,0.49,8.35,5.3,11.79
												c5.21,3.73,9.39,2.99,13.31,2.23c4.21-0.85,7.87-2.91,11.03-5.75C-221.15-9.29-210.75-16.94-207.72-28.41z"/>
										</g>
									</g>
									<g transform="matrix(2.940000057220459,0,0,2.940000057220459,389.16998291015625,333.260009765625)">
										<g transform="matrix(1,0,0,1,79.33499908447266,71.13200378417969)">
											<path class="st5" d="M-135.92-15.28"/>
										</g>
										<g transform="matrix(1,0,0,1,273.4599914550781,70.88999938964844)">
											<path class="st5" d="M-202.92-24.41c4.28-10.29,6.74-21.74,6.74-26.93c0-1.95-0.59-4.13-2.93-4.6
												c-4.22-0.84-8.23-0.68-11.04,0.19c-2.51,0.78,0.58,5.12,0.27,6.53C-211.33-42.44-205.95-12.93-202.92-24.41z"/>
										</g>
									</g>
								</g>
							</g>
						</g>
						<g class="st3">
							<defs>
								<rect id="SVGID_15_" x="-143.26" y="178.45" width="1129.28" height="635.22"/>
							</defs>
							<clipPath id="SVGID_16_">
								<use xlink:href="#SVGID_15_"  style="overflow:visible;"/>
							</clipPath>
							<g transform="matrix(1,0,0,1,0,0)" class="st11">
								<g transform="matrix(2.940000057220459,0,0,2.940000057220459,389.16998291015625,333.260009765625)">
									<g transform="matrix(1,0,0,1,79.33499908447266,71.13200378417969)">
										<path class="st5" d="M-135.92-15.28"/>
									</g>
									<g transform="matrix(1,0,0,1,273.4599914550781,70.88999938964844)">
										<path class="st5" d="M-260.07,17.78c-4.51,0-7.53-3.89-7.53-11.6c0-14.8,5.27-30.71,14.72-30.71
											c1.06,0,2.01,0.14,2.84,0.47c2.98,1.04,4.98,11.34,4.01,18.01C-248.07,6.94-253.82,17.78-260.07,17.78z M-231.49-13.25
											c-0.71-13.93-8.82-19.91-19.98-19.91c-19.6,0-32.1,17.47-32.1,37.07c0,15.88,8.66,22.5,21.28,22.5
											c14.89,0,25.98-10.57,30.12-29.95C-231.6-6.96-231.5-9.41-231.49-13.25z"/>
									</g>
								</g>
							</g>
						</g>
						<g class="st3">
							<defs>
								<rect id="SVGID_17_" x="-143.26" y="178.45" width="1129.28" height="635.22"/>
							</defs>
							<clipPath id="SVGID_18_">
								<use xlink:href="#SVGID_17_"  style="overflow:visible;"/>
							</clipPath>
							<g transform="matrix(1,0,0,1,0,0)" class="st12">
								<g transform="matrix(2.940000057220459,0,0,2.940000057220459,389.16998291015625,333.260009765625)">
									<g transform="matrix(1,0,0,1,79.33499908447266,71.13200378417969)">
										<path class="st5" d="M-96.71-56.73c-2.61,0-4.92,0.13-6.06,0.25c-2.28,0.24-3.05,2.4-2.89,4.53
											c2.4,30.87-4.39,66.8-12.13,66.8c-5.76,0-7.36-16.79-7.36-31.73c0-8.83,0.5-17.33,0.72-24.84
											c0.08-2.79-0.94-3.31-2.95-3.56c-3.05-0.37-5.24-0.37-8.27,0.3c-2.32,0.51-2.86,2.41-5.29,8.2
											c-12.13,28.83-23.83,51.99-23.83,51.99c-3.09-23.21,0.88-45.73,4.26-62.17c0.47-2.26-0.61-3.6-2.47-3.57
											c-3.5,0.06-8.88,0.17-11.3,1.76c-2.27,1.49-3.12,3.08-3.77,6.37c-3.75,18.82-6.2,42.43-2.42,60.69
											c0.82,3.95,1.73,4.88,3.4,5.91c1.67,1.03,8.82,1.96,11.59,1.96c3.15,0,6.03-0.85,8.43-4.96
											c5.08-8.71,9.15-17.41,16.83-34.16c0.79,21.83,3.87,38.96,19.21,38.96c20.33,0,33.45-50.79,33.45-75.22
											C-87.57-55.67-90.77-56.73-96.71-56.73z"/>
									</g>
								</g>
							</g>
						</g>
					</g>
				</g>
				<g>
					<defs>
						<rect id="SVGID_19_" x="-143.26" y="178.45" width="1129.28" height="635.22"/>
					</defs>
					<clipPath id="SVGID_20_">
						<use xlink:href="#SVGID_19_"  style="overflow:visible;"/>
					</clipPath>
					<g transform="matrix(1,0,0,1,0,0)" class="st13">
						<g>
							<defs>
								<rect id="SVGID_21_" x="-143.26" y="178.45" width="1129.28" height="635.22"/>
							</defs>
							<clipPath id="SVGID_22_">
								<use xlink:href="#SVGID_21_"  style="overflow:visible;"/>
							</clipPath>
							<g transform="matrix(1,0,0,1,0,0)" class="st14">
								<g transform="matrix(2.940000057220459,0,0,2.940000057220459,389.16998291015625,333.260009765625)">
									<g transform="matrix(1,0,0,1,79.33499908447266,71.13200378417969)">
										<path class="st5" d="M-135.92-15.28"/>
									</g>
									<g transform="matrix(1,0,0,1,273.4599914550781,70.88999938964844)">
										<path class="st5" d="M-155.46-21.35c3.68-0.08,6.29-1.21,6.93-4.71c0.38-2.08-0.84-3.41-3.21-3.52
											c0,0-6.87-0.36-14.78-0.71c0,0-11.76-0.48-15.04-0.55c-2.93-0.07-5.78-0.09-7.76-0.06c-1.85,0.03-2.71,0.98-3.09,2.5
											c-0.38,1.52-0.69,3.68-0.81,5.93c-0.09,1.7,1.76,2.51,3.67,2.44c0,0,2.35-0.11,6.02-0.28c4.16-0.16,15.49-0.66,15.49-0.66
											C-164.08-21.12-159.66-21.25-155.46-21.35z"/>
									</g>
								</g>
							</g>
						</g>
						<g>
							<defs>
								<rect id="SVGID_23_" x="-143.26" y="178.45" width="1129.28" height="635.22"/>
							</defs>
							<clipPath id="SVGID_24_">
								<use xlink:href="#SVGID_23_"  style="overflow:visible;"/>
							</clipPath>
							<g transform="matrix(1,0,0,1,0,0)" class="st15">
								<g transform="matrix(2.940000057220459,0,0,2.940000057220459,389.16998291015625,333.260009765625)">
									<g transform="matrix(1,0,0,1,79.33499908447266,71.13200378417969)">
										<path class="st5" d="M-135.92-15.28"/>
									</g>
									<g transform="matrix(1,0,0,1,273.4599914550781,70.88999938964844)">
										<path class="st5" d="M-166.52-30.29c0,0,1.6-8.78,2.38-12.35c0.38-1.76-0.54-3.49-2.76-4.03
											c-2.2-0.53-7.25-0.57-8.94-0.38c-1.42,0.16-2.79,1-3.11,2.47c-0.8,3.67-1.63,8.08-2.62,13.74
											c-0.52,2.62-1.52,7.32-1.98,10.52c-0.68,3.21-1.98,11.84-2.56,17.2c-0.68,6.4-1.08,10.2-0.63,15.68
											c1.3,9.92,6.48,13.85,14.9,13.85c7.73,0,15.18-4.9,20.45-13.78c1.05-1.77,1.82-3.32,1.15-4.09
											c-1.53-1.76-4.45-2.67-5.25-1.21c-3.48,6.36-7.21,8.93-11.28,8.93c-3.22,0-5.82-1.91-5.82-7.49
											c0-8.03,4.52-29.74,4.52-29.74C-167.48-23.42-166.88-26.82-166.52-30.29z"/>
									</g>
								</g>
							</g>
						</g>
						<g>
							<defs>
								<rect id="SVGID_25_" x="-143.26" y="178.45" width="1129.28" height="635.22"/>
							</defs>
							<clipPath id="SVGID_26_">
								<use xlink:href="#SVGID_25_"  style="overflow:visible;"/>
							</clipPath>
							<g transform="matrix(1,0,0,1,0,0)" class="st16">
								<g transform="matrix(2.940000057220459,0,0,2.940000057220459,389.16998291015625,333.260009765625)">
									<g transform="matrix(1,0,0,1,79.33499908447266,71.13200378417969)">
										<path class="st5" d="M-135.92-15.28"/>
									</g>
									<g transform="matrix(1,0,0,1,273.4599914550781,70.88999938964844)">
										<path class="st5" d="M-183.54-20.31c-0.68,3.21-2.04,11.84-2.56,17.2c-3.32,11.15-10.2,19.37-16.13,19.37
											c-3.63,0-5.8-2.16-5.8-8.7c0-9.05,2.08-20.5,5.11-31.98c2.03-10.51,4.23-20.81,4.74-26.43c0.18-1.94,1.41-4.63-0.93-5.1
											c-4.22-0.84-8.23-0.68-11.04,0.19c-2.51,0.78-3.02,3.42-3.33,4.83c-1.45,6.77-3.82,18.76-5.49,29.28
											c-0.53,3.62-1.43,8.02-2.18,12.34c0,0-2.38,12.01-2.38,19.06c0,10.69,4.59,16.65,15.36,16.65
											c8.86,0,16.6-6.25,21.43-13.85c4.55-7.58,11.48-33.14,11.48-33.14C-171.28-20.72-187.22-20.13-183.54-20.31z"/>
									</g>
								</g>
								<g transform="matrix(2.940000057220459,0,0,2.940000057220459,389.16998291015625,333.260009765625)">
									<g transform="matrix(1,0,0,1,79.33499908447266,71.13200378417969)">
										<path class="st5" d="M-135.92-15.28"/>
									</g>
									<g transform="matrix(1,0,0,1,273.4599914550781,70.88999938964844)">
										<path class="st5" d="M-173.2-30.33c0,0,0.38-8.73,1.16-12.31c0.38-1.76-2.1-4.6-3.79-4.41c-1.42,0.16-2.79,1-3.11,2.47
											c-0.8,3.67-2.62,13.74-2.62,13.74l-1.98,10.52c0,0-2.04,11.84-2.56,17.2c-3.32,11.15-10.2,19.37-16.13,19.37
											c-3.63,0-5.8-2.16-5.8-8.7c0-9.05-15.49-4.85-15.49,2.2c0,10.69,4.59,16.65,15.36,16.65c8.86,0,16.6-6.25,21.43-13.85
											c7.43-13.92,11.65-32.37,11.65-32.37L-173.2-30.33z"/>
									</g>
								</g>
							</g>
						</g>
						<g>
							<defs>
								<rect id="SVGID_27_" x="-143.26" y="178.45" width="1129.28" height="635.22"/>
							</defs>
							<clipPath id="SVGID_28_">
								<use xlink:href="#SVGID_27_"  style="overflow:visible;"/>
							</clipPath>
							<g transform="matrix(1,0,0,1,0,0)" class="st17">
								<defs>
									
										<filter id="Adobe_OpacityMaskFilter_1_" filterUnits="userSpaceOnUse" x="222.82" y="375.6" width="393.55" height="157.5">
										<feColorMatrix  type="matrix" values="1 0 0 0 0  0 1 0 0 0  0 0 1 0 0  0 0 0 1 0"/>
									</filter>
								</defs>
								<mask maskUnits="userSpaceOnUse" x="222.82" y="375.6" width="393.55" height="157.5" id="__lottie_element_25_1_">
									<rect x="-143.26" y="294.32" class="st18" width="1129.28" height="635.22"/>
									<path d="M504.31,537.82c-32.94-15.88-109.99,32.94-108.22,32.94s97.64,21.76,107.05,21.17
										C512.55,591.35,537.25,553.7,504.31,537.82"/>
								</mask>
								<g class="st19">
									<g transform="matrix(2.940000057220459,0,0,2.940000057220459,389.16998291015625,333.260009765625)">
										<g transform="matrix(1,0,0,1,79.33499908447266,71.13200378417969)">
											<path class="st5" d="M-135.92-15.28"/>
										</g>
										<g transform="matrix(1,0,0,1,273.4599914550781,70.88999938964844)">
											<path class="st5" d="M-207.72-28.41c4.28-10.29,0.38-28.21-2.43-27.33c-2.51,0.78-0.52,17.63-0.83,19.04
												c-1.45,6.77-2.41,7.29-7.99,15.08c-3.69,4.47-7.93,7.61-12.53,8.39c-12.91,1.33-14.81-4.57-9.98-12.91
												c7.53-13-2.44-8.47-7.35,0.05c-1.5,2.6-1.89,5.6-1.98,8.54c-0.11,3.68,0.49,8.35,5.3,11.79
												c5.21,3.73,9.39,2.99,13.31,2.23c4.21-0.85,7.87-2.91,11.03-5.75C-221.15-9.29-210.75-16.94-207.72-28.41z"/>
										</g>
									</g>
									<g transform="matrix(2.940000057220459,0,0,2.940000057220459,389.16998291015625,333.260009765625)">
										<g transform="matrix(1,0,0,1,79.33499908447266,71.13200378417969)">
											<path class="st5" d="M-135.92-15.28"/>
										</g>
										<g transform="matrix(1,0,0,1,273.4599914550781,70.88999938964844)">
											<path class="st5" d="M-202.92-24.41c4.28-10.29,6.74-21.74,6.74-26.93c0-1.95-0.59-4.13-2.93-4.6
												c-4.22-0.84-8.23-0.68-11.04,0.19c-2.51,0.78,0.58,5.12,0.27,6.53C-211.33-42.44-205.95-12.93-202.92-24.41z"/>
										</g>
									</g>
								</g>
							</g>
						</g>
						<g>
							<defs>
								<rect id="SVGID_29_" x="-143.26" y="178.45" width="1129.28" height="635.22"/>
							</defs>
							<clipPath id="SVGID_30_">
								<use xlink:href="#SVGID_29_"  style="overflow:visible;"/>
							</clipPath>
							<g transform="matrix(1,0,0,1,0,0)" class="st20">
								<g transform="matrix(2.940000057220459,0,0,2.940000057220459,389.16998291015625,333.260009765625)">
									<g transform="matrix(1,0,0,1,79.33499908447266,71.13200378417969)">
										<path class="st5" d="M-135.92-15.28"/>
									</g>
									<g transform="matrix(1,0,0,1,273.4599914550781,70.88999938964844)">
										<path class="st5" d="M-260.07,17.78c-4.51,0-7.53-3.89-7.53-11.6c0-14.8,5.27-30.71,14.72-30.71
											c1.06,0,2.01,0.14,2.84,0.47c2.98,1.04,4.98,11.34,4.01,18.01C-248.07,6.94-253.82,17.78-260.07,17.78z M-231.49-13.25
											c-0.71-13.93-8.82-19.91-19.98-19.91c-19.6,0-32.1,17.47-32.1,37.07c0,15.88,8.66,22.5,21.28,22.5
											c14.89,0,25.98-10.57,30.12-29.95C-231.6-6.96-231.5-9.41-231.49-13.25z"/>
									</g>
								</g>
							</g>
						</g>
						<g>
							<defs>
								<rect id="SVGID_31_" x="-143.26" y="178.45" width="1129.28" height="635.22"/>
							</defs>
							<clipPath id="SVGID_32_">
								<use xlink:href="#SVGID_31_"  style="overflow:visible;"/>
							</clipPath>
							<g transform="matrix(1,0,0,1,0,0)" class="st21">
								<g transform="matrix(2.940000057220459,0,0,2.940000057220459,389.16998291015625,333.260009765625)">
									<g transform="matrix(1,0,0,1,79.33499908447266,71.13200378417969)">
										<path class="st5" d="M-96.71-56.73c-2.61,0-4.92,0.13-6.06,0.25c-2.28,0.24-3.05,2.4-2.89,4.53
											c2.4,30.87-4.39,66.8-12.13,66.8c-5.76,0-7.36-16.79-7.36-31.73c0-8.83,0.5-17.33,0.72-24.84
											c0.08-2.79-0.94-3.31-2.95-3.56c-3.05-0.37-5.24-0.37-8.27,0.3c-2.32,0.51-2.86,2.41-5.29,8.2
											c-12.13,28.83-23.83,51.99-23.83,51.99c-3.09-23.21,0.88-45.73,4.26-62.17c0.47-2.26-0.61-3.6-2.47-3.57
											c-3.5,0.06-8.88,0.17-11.3,1.76c-2.27,1.49-3.12,3.08-3.77,6.37c-3.75,18.82-6.2,42.43-2.42,60.69
											c0.82,3.95,1.73,4.88,3.4,5.91c1.67,1.03,8.82,1.96,11.59,1.96c3.15,0,6.03-0.85,8.43-4.96
											c5.08-8.71,9.15-17.41,16.83-34.16c0.79,21.83,3.87,38.96,19.21,38.96c20.33,0,33.45-50.79,33.45-75.22
											C-87.57-55.67-90.77-56.73-96.71-56.73z"/>
									</g>
								</g>
								<g transform="matrix(2.940000057220459,0,0,2.940000057220459,389.16998291015625,333.260009765625)" class="st22">
									<g transform="matrix(1,0,0,1,79.33499908447266,71.13200378417969)" class="st3">
										<path class="st5" d="M-96.71-56.73c-2.61,0-4.92,0.13-6.06,0.25c-2.28,0.24-3.05,2.4-2.89,4.53
											c2.4,30.87-4.39,66.8-12.13,66.8c-5.76,0-7.36-16.79-7.36-31.73c0-8.83,0.5-17.33,0.72-24.84
											c0.08-2.79-0.94-3.31-2.95-3.56c-3.05-0.37-5.24-0.37-8.27,0.3c-2.32,0.51-2.86,2.41-5.29,8.2
											c-12.13,28.83-23.83,51.99-23.83,51.99c-2.8-21.01,0.19-41.44,3.28-57.32c0.33-1.67-17.12,0.84-18.08,7.98
											c-2.31,17.22-4.16,36.76-0.92,52.43c0.82,3.95,1.73,4.88,3.4,5.91c1.67,1.03,8.82,1.96,11.59,1.96
											c3.15,0,6.03-0.85,8.43-4.96c5.08-8.71,9.15-17.41,16.83-34.16c0.79,21.83,3.87,38.96,19.21,38.96
											c20.33,0,33.45-50.79,33.45-75.22C-87.57-55.67-90.77-56.73-96.71-56.73z"/>
									</g>
								</g>
								<g transform="matrix(2.940000057220459,0,0,2.940000057220459,389.16998291015625,333.260009765625)" class="st22">
									<g transform="matrix(1,0,0,1,79.33499908447266,71.13200378417969)" class="st3">
										<path class="st5" d="M-96.71-56.73c-2.61,0-4.92,0.13-6.06,0.25c-2.28,0.24-3.05,2.4-2.89,4.53
											c2.4,30.87-4.39,66.8-12.13,66.8c-5.76,0-7.36-16.79-7.36-31.73c0-8.83,0.5-17.33,0.72-24.84
											c0.08-2.79-0.94-3.31-2.95-3.56c-3.05-0.37-5.24-0.37-8.27,0.3c-2.32,0.51-2.86,2.41-5.29,8.2
											c-12.13,28.83-23.83,51.99-23.83,51.99c-2.07-15.55-0.98-30.79,0.99-44.09c0.69-4.67-16.73,2.51-17.57,10.22
											c-0.36,3.31-1.43,25.85,0.87,36.96c0.82,3.95,1.73,4.88,3.4,5.91c1.67,1.03,8.82,1.96,11.59,1.96
											c3.15,0,6.03-0.85,8.43-4.96c5.08-8.71,9.15-17.41,16.83-34.16c0.79,21.83,3.87,38.96,19.21,38.96
											c20.33,0,33.45-50.79,33.45-75.22C-87.57-55.67-90.77-56.73-96.71-56.73z"/>
									</g>
								</g>
							</g>
						</g>
					</g>
				</g>
			</g>
		</g>
	</g>
</g>
</svg>
