<!--
<svg width="477" height="55" viewBox="0 0 477 55" fill="none" xmlns="http://www.w3.org/2000/svg">
-->
<svg width="100%" height="100%" viewBox="0 0 477 55" fill="none" xmlns="http://www.w3.org/2000/svg">
<g filter="url(#filter0_d_7_623)">
<path d="M466.4 29.65C467.067 30.1167 467.683 30.5333 468.25 30.9C468.85 31.2333 469.367 31.6 469.8 32C470.667 32.8 471.1 33.7833 471.1 34.95V43.45C471.1 44.95 470.567 46.1 469.5 46.9C468.6 47.6333 467.417 48 465.95 48H450V38.75H453.6V44.6H467.1V34.85L454 26.8C452.833 26.1333 451.867 25.45 451.1 24.75C450.367 24.0167 450 23.0333 450 21.8V15.5C450 13.5333 450.467 12.1833 451.4 11.45C452.2 10.8167 453.583 10.5 455.55 10.5H470.65V19.75H467.05V13.9H454V21.9L466.4 29.65Z" fill="#F6EBE4"/>
<path d="M466.4 29.65C467.067 30.1167 467.683 30.5333 468.25 30.9C468.85 31.2333 469.367 31.6 469.8 32C470.667 32.8 471.1 33.7833 471.1 34.95V43.45C471.1 44.95 470.567 46.1 469.5 46.9C468.6 47.6333 467.417 48 465.95 48H450V38.75H453.6V44.6H467.1V34.85L454 26.8C452.833 26.1333 451.867 25.45 451.1 24.75C450.367 24.0167 450 23.0333 450 21.8V15.5C450 13.5333 450.467 12.1833 451.4 11.45C452.2 10.8167 453.583 10.5 455.55 10.5H470.65V19.75H467.05V13.9H454V21.9L466.4 29.65Z" fill="#FFF4EA"/>
<path d="M466.4 29.65C467.067 30.1167 467.683 30.5333 468.25 30.9C468.85 31.2333 469.367 31.6 469.8 32C470.667 32.8 471.1 33.7833 471.1 34.95V43.45C471.1 44.95 470.567 46.1 469.5 46.9C468.6 47.6333 467.417 48 465.95 48H450V38.75H453.6V44.6H467.1V34.85L454 26.8C452.833 26.1333 451.867 25.45 451.1 24.75C450.367 24.0167 450 23.0333 450 21.8V15.5C450 13.5333 450.467 12.1833 451.4 11.45C452.2 10.8167 453.583 10.5 455.55 10.5H470.65V19.75H467.05V13.9H454V21.9L466.4 29.65Z" fill="#FFF6EE"/>
</g>
<g filter="url(#filter1_d_7_623)">
<path d="M437.7 13.9H434.55V48H429.65L415.5 18.8V44.6H418.75V48H408.25V44.6H411.4V13.9H408.25V10.5H415.95L430.45 40.3V13.9H427.2V10.5H437.7V13.9Z" fill="#F6EBE4"/>
<path d="M437.7 13.9H434.55V48H429.65L415.5 18.8V44.6H418.75V48H408.25V44.6H411.4V13.9H408.25V10.5H415.95L430.45 40.3V13.9H427.2V10.5H437.7V13.9Z" fill="#FFF4EA"/>
<path d="M437.7 13.9H434.55V48H429.65L415.5 18.8V44.6H418.75V48H408.25V44.6H411.4V13.9H408.25V10.5H415.95L430.45 40.3V13.9H427.2V10.5H437.7V13.9Z" fill="#FFF6EE"/>
</g>
<g filter="url(#filter2_d_7_623)">
<path d="M375 16.25C375 12.4167 376.783 10.5 380.35 10.5H396.1V19.75H392.1V13.9H379.1V44.6H392.1V32.9L385.15 37.25V33.6L396.1 26.75V48H381.25C378.883 48 377.267 47.5667 376.4 46.7C375.467 45.8 375 44.1667 375 41.8V16.25Z" fill="#F6EBE4"/>
<path d="M375 16.25C375 12.4167 376.783 10.5 380.35 10.5H396.1V19.75H392.1V13.9H379.1V44.6H392.1V32.9L385.15 37.25V33.6L396.1 26.75V48H381.25C378.883 48 377.267 47.5667 376.4 46.7C375.467 45.8 375 44.1667 375 41.8V16.25Z" fill="#FFF4EA"/>
<path d="M375 16.25C375 12.4167 376.783 10.5 380.35 10.5H396.1V19.75H392.1V13.9H379.1V44.6H392.1V32.9L385.15 37.25V33.6L396.1 26.75V48H381.25C378.883 48 377.267 47.5667 376.4 46.7C375.467 45.8 375 44.1667 375 41.8V16.25Z" fill="#FFF6EE"/>
</g>
<g filter="url(#filter3_d_7_623)">
<path d="M358.25 44.6H361.5V48H351V44.6H354.15V13.9H351V10.5H361.5V13.9H358.25V44.6Z" fill="#F6EBE4"/>
<path d="M358.25 44.6H361.5V48H351V44.6H354.15V13.9H351V10.5H361.5V13.9H358.25V44.6Z" fill="#FFF4EA"/>
<path d="M358.25 44.6H361.5V48H351V44.6H354.15V13.9H351V10.5H361.5V13.9H358.25V44.6Z" fill="#FFF6EE"/>
</g>
<g filter="url(#filter4_d_7_623)">
<path d="M334.4 29.65C335.067 30.1167 335.683 30.5333 336.25 30.9C336.85 31.2333 337.367 31.6 337.8 32C338.667 32.8 339.1 33.7833 339.1 34.95V43.45C339.1 44.95 338.567 46.1 337.5 46.9C336.6 47.6333 335.417 48 333.95 48H318V38.75H321.6V44.6H335.1V34.85L322 26.8C320.833 26.1333 319.867 25.45 319.1 24.75C318.367 24.0167 318 23.0333 318 21.8V15.5C318 13.5333 318.467 12.1833 319.4 11.45C320.2 10.8167 321.583 10.5 323.55 10.5H338.65V19.75H335.05V13.9H322V21.9L334.4 29.65Z" fill="#F6EBE4"/>
<path d="M334.4 29.65C335.067 30.1167 335.683 30.5333 336.25 30.9C336.85 31.2333 337.367 31.6 337.8 32C338.667 32.8 339.1 33.7833 339.1 34.95V43.45C339.1 44.95 338.567 46.1 337.5 46.9C336.6 47.6333 335.417 48 333.95 48H318V38.75H321.6V44.6H335.1V34.85L322 26.8C320.833 26.1333 319.867 25.45 319.1 24.75C318.367 24.0167 318 23.0333 318 21.8V15.5C318 13.5333 318.467 12.1833 319.4 11.45C320.2 10.8167 321.583 10.5 323.55 10.5H338.65V19.75H335.05V13.9H322V21.9L334.4 29.65Z" fill="#FFF4EA"/>
<path d="M334.4 29.65C335.067 30.1167 335.683 30.5333 336.25 30.9C336.85 31.2333 337.367 31.6 337.8 32C338.667 32.8 339.1 33.7833 339.1 34.95V43.45C339.1 44.95 338.567 46.1 337.5 46.9C336.6 47.6333 335.417 48 333.95 48H318V38.75H321.6V44.6H335.1V34.85L322 26.8C320.833 26.1333 319.867 25.45 319.1 24.75C318.367 24.0167 318 23.0333 318 21.8V15.5C318 13.5333 318.467 12.1833 319.4 11.45C320.2 10.8167 321.583 10.5 323.55 10.5H338.65V19.75H335.05V13.9H322V21.9L334.4 29.65Z" fill="#FFF6EE"/>
</g>
<g filter="url(#filter5_d_7_623)">
<path d="M302.95 23.35V33.85H299.55V30.3H292.5V44.6H305.3V38.75H308.7V48H285.25V44.6H288.4V13.9H285.25V10.5H308.7V19.75H305.3V13.9H292.5V26.9H299.55V23.35H302.95Z" fill="#F6EBE4"/>
<path d="M302.95 23.35V33.85H299.55V30.3H292.5V44.6H305.3V38.75H308.7V48H285.25V44.6H288.4V13.9H285.25V10.5H308.7V19.75H305.3V13.9H292.5V26.9H299.55V23.35H302.95Z" fill="#FFF4EA"/>
<path d="M302.95 23.35V33.85H299.55V30.3H292.5V44.6H305.3V38.75H308.7V48H285.25V44.6H288.4V13.9H285.25V10.5H308.7V19.75H305.3V13.9H292.5V26.9H299.55V23.35H302.95Z" fill="#FFF6EE"/>
</g>
<g filter="url(#filter6_d_7_623)">
<path d="M261.046 17.3339L250.397 17.3337V41.1664H261.046L268.024 34.1092V24.391L261.046 17.3339ZM265.706 33.1649L260.087 38.8483H252.704V19.652H260.086L265.706 25.3354V33.1649Z" fill="#F6EBE4"/>
<path d="M261.046 17.3339L250.397 17.3337V41.1664H261.046L268.024 34.1092V24.391L261.046 17.3339ZM265.706 33.1649L260.087 38.8483H252.704V19.652H260.086L265.706 25.3354V33.1649Z" fill="#FFF4EA"/>
<path d="M261.046 17.3339L250.397 17.3337V41.1664H261.046L268.024 34.1092V24.391L261.046 17.3339ZM265.706 33.1649L260.087 38.8483H252.704V19.652H260.086L265.706 25.3354V33.1649Z" fill="#FFF6EE"/>
</g>
<g filter="url(#filter7_d_7_623)">
<path d="M263.91 10.5L232.818 10.5009V23.7121C231.604 23.8332 230.337 23.8946 229.039 23.8946C227.799 23.8946 226.586 23.8386 225.42 23.7277V10.5009H208V11.66C208 13.7309 208.424 15.6463 209.26 17.3529C210.054 18.9757 211.224 20.4151 212.735 21.6305C215.287 23.6833 218.86 25.1071 223.113 25.7741V31.989C218.892 32.7453 215.309 34.3227 212.703 36.5789C209.626 39.2434 208 42.7892 208 46.8335V47.9926H225.42V33.9964C226.593 33.8656 227.806 33.7996 229.039 33.7996C230.329 33.7996 231.596 33.8718 232.818 34.0145V47.9928L263.91 48.0002L274.892 36.893V21.6074L263.91 10.5ZM223.113 45.6743H210.36C210.628 42.7823 211.92 40.3176 214.209 38.3353C216.419 36.4209 219.479 35.0539 223.113 34.3469V45.6743ZM223.113 23.4259C219.418 22.8019 216.347 21.5661 214.176 19.8206C211.911 17.9988 210.631 15.6476 210.361 12.8191H223.113V23.4259ZM232.818 31.6817C231.59 31.5485 230.324 31.4813 229.039 31.4813C227.81 31.4813 226.598 31.543 225.42 31.6649V26.0556C226.591 26.1601 227.803 26.2128 229.039 26.2128C230.332 26.2128 231.598 26.1551 232.818 26.0411V31.6817ZM235.125 12.8191H247.718C247.449 15.6282 246.184 17.9674 243.947 19.784C241.806 21.5229 238.775 22.7618 235.125 23.3986V12.8191ZM235.125 45.6743V34.3785C238.715 35.0997 241.734 36.4692 243.915 38.375C246.176 40.3509 247.452 42.802 247.719 45.6743H235.125ZM272.567 35.9558L262.95 45.6821H250.033C249.754 42.1399 248.177 39.0273 245.429 36.6258C242.853 34.3745 239.305 32.7909 235.124 32.018V25.7488C239.337 25.0668 242.873 23.6368 245.397 21.5872C246.892 20.3733 248.048 18.9382 248.834 17.3222C249.503 15.9468 249.904 14.4361 250.033 12.8181H262.95L272.566 22.5444V35.9558H272.567Z" fill="#F6EBE4"/>
<path d="M263.91 10.5L232.818 10.5009V23.7121C231.604 23.8332 230.337 23.8946 229.039 23.8946C227.799 23.8946 226.586 23.8386 225.42 23.7277V10.5009H208V11.66C208 13.7309 208.424 15.6463 209.26 17.3529C210.054 18.9757 211.224 20.4151 212.735 21.6305C215.287 23.6833 218.86 25.1071 223.113 25.7741V31.989C218.892 32.7453 215.309 34.3227 212.703 36.5789C209.626 39.2434 208 42.7892 208 46.8335V47.9926H225.42V33.9964C226.593 33.8656 227.806 33.7996 229.039 33.7996C230.329 33.7996 231.596 33.8718 232.818 34.0145V47.9928L263.91 48.0002L274.892 36.893V21.6074L263.91 10.5ZM223.113 45.6743H210.36C210.628 42.7823 211.92 40.3176 214.209 38.3353C216.419 36.4209 219.479 35.0539 223.113 34.3469V45.6743ZM223.113 23.4259C219.418 22.8019 216.347 21.5661 214.176 19.8206C211.911 17.9988 210.631 15.6476 210.361 12.8191H223.113V23.4259ZM232.818 31.6817C231.59 31.5485 230.324 31.4813 229.039 31.4813C227.81 31.4813 226.598 31.543 225.42 31.6649V26.0556C226.591 26.1601 227.803 26.2128 229.039 26.2128C230.332 26.2128 231.598 26.1551 232.818 26.0411V31.6817ZM235.125 12.8191H247.718C247.449 15.6282 246.184 17.9674 243.947 19.784C241.806 21.5229 238.775 22.7618 235.125 23.3986V12.8191ZM235.125 45.6743V34.3785C238.715 35.0997 241.734 36.4692 243.915 38.375C246.176 40.3509 247.452 42.802 247.719 45.6743H235.125ZM272.567 35.9558L262.95 45.6821H250.033C249.754 42.1399 248.177 39.0273 245.429 36.6258C242.853 34.3745 239.305 32.7909 235.124 32.018V25.7488C239.337 25.0668 242.873 23.6368 245.397 21.5872C246.892 20.3733 248.048 18.9382 248.834 17.3222C249.503 15.9468 249.904 14.4361 250.033 12.8181H262.95L272.566 22.5444V35.9558H272.567Z" fill="#FFF4EA"/>
<path d="M263.91 10.5L232.818 10.5009V23.7121C231.604 23.8332 230.337 23.8946 229.039 23.8946C227.799 23.8946 226.586 23.8386 225.42 23.7277V10.5009H208V11.66C208 13.7309 208.424 15.6463 209.26 17.3529C210.054 18.9757 211.224 20.4151 212.735 21.6305C215.287 23.6833 218.86 25.1071 223.113 25.7741V31.989C218.892 32.7453 215.309 34.3227 212.703 36.5789C209.626 39.2434 208 42.7892 208 46.8335V47.9926H225.42V33.9964C226.593 33.8656 227.806 33.7996 229.039 33.7996C230.329 33.7996 231.596 33.8718 232.818 34.0145V47.9928L263.91 48.0002L274.892 36.893V21.6074L263.91 10.5ZM223.113 45.6743H210.36C210.628 42.7823 211.92 40.3176 214.209 38.3353C216.419 36.4209 219.479 35.0539 223.113 34.3469V45.6743ZM223.113 23.4259C219.418 22.8019 216.347 21.5661 214.176 19.8206C211.911 17.9988 210.631 15.6476 210.361 12.8191H223.113V23.4259ZM232.818 31.6817C231.59 31.5485 230.324 31.4813 229.039 31.4813C227.81 31.4813 226.598 31.543 225.42 31.6649V26.0556C226.591 26.1601 227.803 26.2128 229.039 26.2128C230.332 26.2128 231.598 26.1551 232.818 26.0411V31.6817ZM235.125 12.8191H247.718C247.449 15.6282 246.184 17.9674 243.947 19.784C241.806 21.5229 238.775 22.7618 235.125 23.3986V12.8191ZM235.125 45.6743V34.3785C238.715 35.0997 241.734 36.4692 243.915 38.375C246.176 40.3509 247.452 42.802 247.719 45.6743H235.125ZM272.567 35.9558L262.95 45.6821H250.033C249.754 42.1399 248.177 39.0273 245.429 36.6258C242.853 34.3745 239.305 32.7909 235.124 32.018V25.7488C239.337 25.0668 242.873 23.6368 245.397 21.5872C246.892 20.3733 248.048 18.9382 248.834 17.3222C249.503 15.9468 249.904 14.4361 250.033 12.8181H262.95L272.566 22.5444V35.9558H272.567Z" fill="#FFF6EE"/>
</g>
<g filter="url(#filter8_d_7_623)">
<rect x="188.25" y="41.25" width="5.5" height="5.5" rx="2.75" stroke="#F6EBE4" stroke-width="2.5" shape-rendering="crispEdges"/>
<rect x="188.25" y="41.25" width="5.5" height="5.5" rx="2.75" stroke="#FFF4EA" stroke-width="2.5" shape-rendering="crispEdges"/>
<rect x="188.25" y="41.25" width="5.5" height="5.5" rx="2.75" stroke="#FFF6EE" stroke-width="2.5" shape-rendering="crispEdges"/>
</g>
<g filter="url(#filter9_d_7_623)">
<path d="M172.25 44.6H175.5V48H165V44.6H168.15V13.9H165V10.5H175.5V13.9H172.25V44.6Z" fill="#F6EBE4"/>
<path d="M172.25 44.6H175.5V48H165V44.6H168.15V13.9H165V10.5H175.5V13.9H172.25V44.6Z" fill="#FFF4EA"/>
<path d="M172.25 44.6H175.5V48H165V44.6H168.15V13.9H165V10.5H175.5V13.9H172.25V44.6Z" fill="#FFF6EE"/>
</g>
<g filter="url(#filter10_d_7_623)">
<rect x="146.25" y="41.25" width="5.5" height="5.5" rx="2.75" stroke="#F6EBE4" stroke-width="2.5" shape-rendering="crispEdges"/>
<rect x="146.25" y="41.25" width="5.5" height="5.5" rx="2.75" stroke="#FFF4EA" stroke-width="2.5" shape-rendering="crispEdges"/>
<rect x="146.25" y="41.25" width="5.5" height="5.5" rx="2.75" stroke="#FFF6EE" stroke-width="2.5" shape-rendering="crispEdges"/>
</g>
<g filter="url(#filter11_d_7_623)">
<path d="M119 44.6H122.15V13.9H115.85V19.8H112.25V10.5H136.2V19.8H132.55V13.9H126.25V44.6H129.5V48H119V44.6Z" fill="#F6EBE4"/>
<path d="M119 44.6H122.15V13.9H115.85V19.8H112.25V10.5H136.2V19.8H132.55V13.9H126.25V44.6H129.5V48H119V44.6Z" fill="#FFF4EA"/>
<path d="M119 44.6H122.15V13.9H115.85V19.8H112.25V10.5H136.2V19.8H132.55V13.9H126.25V44.6H129.5V48H119V44.6Z" fill="#FFF6EE"/>
</g>
<g filter="url(#filter12_d_7_623)">
<rect x="96.25" y="41.25" width="5.5" height="5.5" rx="2.75" stroke="#F6EBE4" stroke-width="2.5" shape-rendering="crispEdges"/>
<rect x="96.25" y="41.25" width="5.5" height="5.5" rx="2.75" stroke="#FFF4EA" stroke-width="2.5" shape-rendering="crispEdges"/>
<rect x="96.25" y="41.25" width="5.5" height="5.5" rx="2.75" stroke="#FFF6EE" stroke-width="2.5" shape-rendering="crispEdges"/>
</g>
<g filter="url(#filter13_d_7_623)">
<path d="M78.3 10.5C80.3333 10.5 81.8 11.0667 82.7 12.2C83.6333 13.3 84.1 14.95 84.1 17.15V41.2C84.1 43.6 83.7 45.3333 82.9 46.4C82.1 47.4667 80.65 48 78.55 48H68.95C65.75 48 63.8667 46.8 63.3 44.4C63.1 43.6667 63 42.85 63 41.95V17.15C63 14.9167 63.3667 13.3 64.1 12.3C64.9333 11.1 66.4167 10.5 68.55 10.5H78.3ZM67 44.6H80.1V13.9H67V44.6Z" fill="#F6EBE4"/>
<path d="M78.3 10.5C80.3333 10.5 81.8 11.0667 82.7 12.2C83.6333 13.3 84.1 14.95 84.1 17.15V41.2C84.1 43.6 83.7 45.3333 82.9 46.4C82.1 47.4667 80.65 48 78.55 48H68.95C65.75 48 63.8667 46.8 63.3 44.4C63.1 43.6667 63 42.85 63 41.95V17.15C63 14.9167 63.3667 13.3 64.1 12.3C64.9333 11.1 66.4167 10.5 68.55 10.5H78.3ZM67 44.6H80.1V13.9H67V44.6Z" fill="#FFF4EA"/>
<path d="M78.3 10.5C80.3333 10.5 81.8 11.0667 82.7 12.2C83.6333 13.3 84.1 14.95 84.1 17.15V41.2C84.1 43.6 83.7 45.3333 82.9 46.4C82.1 47.4667 80.65 48 78.55 48H68.95C65.75 48 63.8667 46.8 63.3 44.4C63.1 43.6667 63 42.85 63 41.95V17.15C63 14.9167 63.3667 13.3 64.1 12.3C64.9333 11.1 66.4167 10.5 68.55 10.5H78.3ZM67 44.6H80.1V13.9H67V44.6Z" fill="#FFF6EE"/>
</g>
<g filter="url(#filter14_d_7_623)">
<rect x="45.25" y="41.25" width="5.5" height="5.5" rx="2.75" stroke="#F6EBE4" stroke-width="2.5" shape-rendering="crispEdges"/>
<rect x="45.25" y="41.25" width="5.5" height="5.5" rx="2.75" stroke="#FFF4EA" stroke-width="2.5" shape-rendering="crispEdges"/>
<rect x="45.25" y="41.25" width="5.5" height="5.5" rx="2.75" stroke="#FFF6EE" stroke-width="2.5" shape-rendering="crispEdges"/>
</g>
<g filter="url(#filter15_d_7_623)">
<path d="M32.25 44.6V48H27.05L18.8 32.4L10.55 48H5.25V44.6H8.1L16.65 28.3L9.1 13.9H6.1V10.5H11.6L18.75 24.3L26 10.5H31.4V13.9H28.45L20.85 28.3L29.5 44.6H32.25Z" fill="#F6EBE4"/>
<path d="M32.25 44.6V48H27.05L18.8 32.4L10.55 48H5.25V44.6H8.1L16.65 28.3L9.1 13.9H6.1V10.5H11.6L18.75 24.3L26 10.5H31.4V13.9H28.45L20.85 28.3L29.5 44.6H32.25Z" fill="#FFF4EA"/>
<path d="M32.25 44.6V48H27.05L18.8 32.4L10.55 48H5.25V44.6H8.1L16.65 28.3L9.1 13.9H6.1V10.5H11.6L18.75 24.3L26 10.5H31.4V13.9H28.45L20.85 28.3L29.5 44.6H32.25Z" fill="#FFF6EE"/>
</g>
<defs>
<filter id="filter0_d_7_623" x="445" y="7.5" width="31.1" height="47.5" filterUnits="userSpaceOnUse" color-interpolation-filters="sRGB">
<feFlood flood-opacity="0" result="BackgroundImageFix"/>
<feColorMatrix in="SourceAlpha" type="matrix" values="0 0 0 0 0 0 0 0 0 0 0 0 0 0 0 0 0 0 127 0" result="hardAlpha"/>
<feOffset dy="2"/>
<feGaussianBlur stdDeviation="2.5"/>
<feComposite in2="hardAlpha" operator="out"/>
<feColorMatrix type="matrix" values="0 0 0 0 0 0 0 0 0 0 0 0 0 0 0 0 0 0 0.4 0"/>
<feBlend mode="normal" in2="BackgroundImageFix" result="effect1_dropShadow_7_623"/>
<feBlend mode="normal" in="SourceGraphic" in2="effect1_dropShadow_7_623" result="shape"/>
</filter>
<filter id="filter1_d_7_623" x="403.25" y="7.5" width="39.45" height="47.5" filterUnits="userSpaceOnUse" color-interpolation-filters="sRGB">
<feFlood flood-opacity="0" result="BackgroundImageFix"/>
<feColorMatrix in="SourceAlpha" type="matrix" values="0 0 0 0 0 0 0 0 0 0 0 0 0 0 0 0 0 0 127 0" result="hardAlpha"/>
<feOffset dy="2"/>
<feGaussianBlur stdDeviation="2.5"/>
<feComposite in2="hardAlpha" operator="out"/>
<feColorMatrix type="matrix" values="0 0 0 0 0 0 0 0 0 0 0 0 0 0 0 0 0 0 0.4 0"/>
<feBlend mode="normal" in2="BackgroundImageFix" result="effect1_dropShadow_7_623"/>
<feBlend mode="normal" in="SourceGraphic" in2="effect1_dropShadow_7_623" result="shape"/>
</filter>
<filter id="filter2_d_7_623" x="370" y="7.5" width="31.1" height="47.5" filterUnits="userSpaceOnUse" color-interpolation-filters="sRGB">
<feFlood flood-opacity="0" result="BackgroundImageFix"/>
<feColorMatrix in="SourceAlpha" type="matrix" values="0 0 0 0 0 0 0 0 0 0 0 0 0 0 0 0 0 0 127 0" result="hardAlpha"/>
<feOffset dy="2"/>
<feGaussianBlur stdDeviation="2.5"/>
<feComposite in2="hardAlpha" operator="out"/>
<feColorMatrix type="matrix" values="0 0 0 0 0 0 0 0 0 0 0 0 0 0 0 0 0 0 0.4 0"/>
<feBlend mode="normal" in2="BackgroundImageFix" result="effect1_dropShadow_7_623"/>
<feBlend mode="normal" in="SourceGraphic" in2="effect1_dropShadow_7_623" result="shape"/>
</filter>
<filter id="filter3_d_7_623" x="346" y="7.5" width="20.5" height="47.5" filterUnits="userSpaceOnUse" color-interpolation-filters="sRGB">
<feFlood flood-opacity="0" result="BackgroundImageFix"/>
<feColorMatrix in="SourceAlpha" type="matrix" values="0 0 0 0 0 0 0 0 0 0 0 0 0 0 0 0 0 0 127 0" result="hardAlpha"/>
<feOffset dy="2"/>
<feGaussianBlur stdDeviation="2.5"/>
<feComposite in2="hardAlpha" operator="out"/>
<feColorMatrix type="matrix" values="0 0 0 0 0 0 0 0 0 0 0 0 0 0 0 0 0 0 0.4 0"/>
<feBlend mode="normal" in2="BackgroundImageFix" result="effect1_dropShadow_7_623"/>
<feBlend mode="normal" in="SourceGraphic" in2="effect1_dropShadow_7_623" result="shape"/>
</filter>
<filter id="filter4_d_7_623" x="313" y="7.5" width="31.1" height="47.5" filterUnits="userSpaceOnUse" color-interpolation-filters="sRGB">
<feFlood flood-opacity="0" result="BackgroundImageFix"/>
<feColorMatrix in="SourceAlpha" type="matrix" values="0 0 0 0 0 0 0 0 0 0 0 0 0 0 0 0 0 0 127 0" result="hardAlpha"/>
<feOffset dy="2"/>
<feGaussianBlur stdDeviation="2.5"/>
<feComposite in2="hardAlpha" operator="out"/>
<feColorMatrix type="matrix" values="0 0 0 0 0 0 0 0 0 0 0 0 0 0 0 0 0 0 0.4 0"/>
<feBlend mode="normal" in2="BackgroundImageFix" result="effect1_dropShadow_7_623"/>
<feBlend mode="normal" in="SourceGraphic" in2="effect1_dropShadow_7_623" result="shape"/>
</filter>
<filter id="filter5_d_7_623" x="280.25" y="7.5" width="33.45" height="47.5" filterUnits="userSpaceOnUse" color-interpolation-filters="sRGB">
<feFlood flood-opacity="0" result="BackgroundImageFix"/>
<feColorMatrix in="SourceAlpha" type="matrix" values="0 0 0 0 0 0 0 0 0 0 0 0 0 0 0 0 0 0 127 0" result="hardAlpha"/>
<feOffset dy="2"/>
<feGaussianBlur stdDeviation="2.5"/>
<feComposite in2="hardAlpha" operator="out"/>
<feColorMatrix type="matrix" values="0 0 0 0 0 0 0 0 0 0 0 0 0 0 0 0 0 0 0.4 0"/>
<feBlend mode="normal" in2="BackgroundImageFix" result="effect1_dropShadow_7_623"/>
<feBlend mode="normal" in="SourceGraphic" in2="effect1_dropShadow_7_623" result="shape"/>
</filter>
<filter id="filter6_d_7_623" x="245.397" y="14.3337" width="27.6265" height="33.8326" filterUnits="userSpaceOnUse" color-interpolation-filters="sRGB">
<feFlood flood-opacity="0" result="BackgroundImageFix"/>
<feColorMatrix in="SourceAlpha" type="matrix" values="0 0 0 0 0 0 0 0 0 0 0 0 0 0 0 0 0 0 127 0" result="hardAlpha"/>
<feOffset dy="2"/>
<feGaussianBlur stdDeviation="2.5"/>
<feComposite in2="hardAlpha" operator="out"/>
<feColorMatrix type="matrix" values="0 0 0 0 0 0 0 0 0 0 0 0 0 0 0 0 0 0 0.4 0"/>
<feBlend mode="normal" in2="BackgroundImageFix" result="effect1_dropShadow_7_623"/>
<feBlend mode="normal" in="SourceGraphic" in2="effect1_dropShadow_7_623" result="shape"/>
</filter>
<filter id="filter7_d_7_623" x="203" y="7.5" width="76.8919" height="47.5002" filterUnits="userSpaceOnUse" color-interpolation-filters="sRGB">
<feFlood flood-opacity="0" result="BackgroundImageFix"/>
<feColorMatrix in="SourceAlpha" type="matrix" values="0 0 0 0 0 0 0 0 0 0 0 0 0 0 0 0 0 0 127 0" result="hardAlpha"/>
<feOffset dy="2"/>
<feGaussianBlur stdDeviation="2.5"/>
<feComposite in2="hardAlpha" operator="out"/>
<feColorMatrix type="matrix" values="0 0 0 0 0 0 0 0 0 0 0 0 0 0 0 0 0 0 0.4 0"/>
<feBlend mode="normal" in2="BackgroundImageFix" result="effect1_dropShadow_7_623"/>
<feBlend mode="normal" in="SourceGraphic" in2="effect1_dropShadow_7_623" result="shape"/>
</filter>
<filter id="filter8_d_7_623" x="182" y="37" width="18" height="18" filterUnits="userSpaceOnUse" color-interpolation-filters="sRGB">
<feFlood flood-opacity="0" result="BackgroundImageFix"/>
<feColorMatrix in="SourceAlpha" type="matrix" values="0 0 0 0 0 0 0 0 0 0 0 0 0 0 0 0 0 0 127 0" result="hardAlpha"/>
<feOffset dy="2"/>
<feGaussianBlur stdDeviation="2.5"/>
<feComposite in2="hardAlpha" operator="out"/>
<feColorMatrix type="matrix" values="0 0 0 0 0 0 0 0 0 0 0 0 0 0 0 0 0 0 0.4 0"/>
<feBlend mode="normal" in2="BackgroundImageFix" result="effect1_dropShadow_7_623"/>
<feBlend mode="normal" in="SourceGraphic" in2="effect1_dropShadow_7_623" result="shape"/>
</filter>
<filter id="filter9_d_7_623" x="160" y="7.5" width="20.5" height="47.5" filterUnits="userSpaceOnUse" color-interpolation-filters="sRGB">
<feFlood flood-opacity="0" result="BackgroundImageFix"/>
<feColorMatrix in="SourceAlpha" type="matrix" values="0 0 0 0 0 0 0 0 0 0 0 0 0 0 0 0 0 0 127 0" result="hardAlpha"/>
<feOffset dy="2"/>
<feGaussianBlur stdDeviation="2.5"/>
<feComposite in2="hardAlpha" operator="out"/>
<feColorMatrix type="matrix" values="0 0 0 0 0 0 0 0 0 0 0 0 0 0 0 0 0 0 0.4 0"/>
<feBlend mode="normal" in2="BackgroundImageFix" result="effect1_dropShadow_7_623"/>
<feBlend mode="normal" in="SourceGraphic" in2="effect1_dropShadow_7_623" result="shape"/>
</filter>
<filter id="filter10_d_7_623" x="140" y="37" width="18" height="18" filterUnits="userSpaceOnUse" color-interpolation-filters="sRGB">
<feFlood flood-opacity="0" result="BackgroundImageFix"/>
<feColorMatrix in="SourceAlpha" type="matrix" values="0 0 0 0 0 0 0 0 0 0 0 0 0 0 0 0 0 0 127 0" result="hardAlpha"/>
<feOffset dy="2"/>
<feGaussianBlur stdDeviation="2.5"/>
<feComposite in2="hardAlpha" operator="out"/>
<feColorMatrix type="matrix" values="0 0 0 0 0 0 0 0 0 0 0 0 0 0 0 0 0 0 0.4 0"/>
<feBlend mode="normal" in2="BackgroundImageFix" result="effect1_dropShadow_7_623"/>
<feBlend mode="normal" in="SourceGraphic" in2="effect1_dropShadow_7_623" result="shape"/>
</filter>
<filter id="filter11_d_7_623" x="107.25" y="7.5" width="33.95" height="47.5" filterUnits="userSpaceOnUse" color-interpolation-filters="sRGB">
<feFlood flood-opacity="0" result="BackgroundImageFix"/>
<feColorMatrix in="SourceAlpha" type="matrix" values="0 0 0 0 0 0 0 0 0 0 0 0 0 0 0 0 0 0 127 0" result="hardAlpha"/>
<feOffset dy="2"/>
<feGaussianBlur stdDeviation="2.5"/>
<feComposite in2="hardAlpha" operator="out"/>
<feColorMatrix type="matrix" values="0 0 0 0 0 0 0 0 0 0 0 0 0 0 0 0 0 0 0.4 0"/>
<feBlend mode="normal" in2="BackgroundImageFix" result="effect1_dropShadow_7_623"/>
<feBlend mode="normal" in="SourceGraphic" in2="effect1_dropShadow_7_623" result="shape"/>
</filter>
<filter id="filter12_d_7_623" x="90" y="37" width="18" height="18" filterUnits="userSpaceOnUse" color-interpolation-filters="sRGB">
<feFlood flood-opacity="0" result="BackgroundImageFix"/>
<feColorMatrix in="SourceAlpha" type="matrix" values="0 0 0 0 0 0 0 0 0 0 0 0 0 0 0 0 0 0 127 0" result="hardAlpha"/>
<feOffset dy="2"/>
<feGaussianBlur stdDeviation="2.5"/>
<feComposite in2="hardAlpha" operator="out"/>
<feColorMatrix type="matrix" values="0 0 0 0 0 0 0 0 0 0 0 0 0 0 0 0 0 0 0.4 0"/>
<feBlend mode="normal" in2="BackgroundImageFix" result="effect1_dropShadow_7_623"/>
<feBlend mode="normal" in="SourceGraphic" in2="effect1_dropShadow_7_623" result="shape"/>
</filter>
<filter id="filter13_d_7_623" x="58" y="7.5" width="31.1" height="47.5" filterUnits="userSpaceOnUse" color-interpolation-filters="sRGB">
<feFlood flood-opacity="0" result="BackgroundImageFix"/>
<feColorMatrix in="SourceAlpha" type="matrix" values="0 0 0 0 0 0 0 0 0 0 0 0 0 0 0 0 0 0 127 0" result="hardAlpha"/>
<feOffset dy="2"/>
<feGaussianBlur stdDeviation="2.5"/>
<feComposite in2="hardAlpha" operator="out"/>
<feColorMatrix type="matrix" values="0 0 0 0 0 0 0 0 0 0 0 0 0 0 0 0 0 0 0.4 0"/>
<feBlend mode="normal" in2="BackgroundImageFix" result="effect1_dropShadow_7_623"/>
<feBlend mode="normal" in="SourceGraphic" in2="effect1_dropShadow_7_623" result="shape"/>
</filter>
<filter id="filter14_d_7_623" x="39" y="37" width="18" height="18" filterUnits="userSpaceOnUse" color-interpolation-filters="sRGB">
<feFlood flood-opacity="0" result="BackgroundImageFix"/>
<feColorMatrix in="SourceAlpha" type="matrix" values="0 0 0 0 0 0 0 0 0 0 0 0 0 0 0 0 0 0 127 0" result="hardAlpha"/>
<feOffset dy="2"/>
<feGaussianBlur stdDeviation="2.5"/>
<feComposite in2="hardAlpha" operator="out"/>
<feColorMatrix type="matrix" values="0 0 0 0 0 0 0 0 0 0 0 0 0 0 0 0 0 0 0.4 0"/>
<feBlend mode="normal" in2="BackgroundImageFix" result="effect1_dropShadow_7_623"/>
<feBlend mode="normal" in="SourceGraphic" in2="effect1_dropShadow_7_623" result="shape"/>
</filter>
<filter id="filter15_d_7_623" x="0.25" y="7.5" width="37" height="47.5" filterUnits="userSpaceOnUse" color-interpolation-filters="sRGB">
<feFlood flood-opacity="0" result="BackgroundImageFix"/>
<feColorMatrix in="SourceAlpha" type="matrix" values="0 0 0 0 0 0 0 0 0 0 0 0 0 0 0 0 0 0 127 0" result="hardAlpha"/>
<feOffset dy="2"/>
<feGaussianBlur stdDeviation="2.5"/>
<feComposite in2="hardAlpha" operator="out"/>
<feColorMatrix type="matrix" values="0 0 0 0 0 0 0 0 0 0 0 0 0 0 0 0 0 0 0.4 0"/>
<feBlend mode="normal" in2="BackgroundImageFix" result="effect1_dropShadow_7_623"/>
<feBlend mode="normal" in="SourceGraphic" in2="effect1_dropShadow_7_623" result="shape"/>
</filter>
</defs>
</svg>
